<svg id="canvas" width="531.007" height="225.420" viewBox="290.066 209.492 531.007 225.420" preserveAspectRatio="xMidYMid meet" class="h-full w-full max-w-4xl text-primary transition-opacity duration-300 opacity-100" xmlns="http://www.w3.org/2000/svg"><g id="canvas-strokes"><path d="M 295.86,334.74 C 297.12 334.88, 297.87 334.29, 299.48 333.17 C 301.10 332.05, 301.89 331.60, 303.96 329.15 C 306.02 326.69, 307.08 324.63, 309.82 320.91 C 312.56 317.19, 314.28 315.07, 317.67 310.54 C 321.07 306.01, 323.03 303.30, 326.78 298.26 C 330.53 293.23, 332.58 290.45, 336.41 285.36 C 340.25 280.27, 342.16 277.59, 345.96 272.80 C 349.77 268.01, 351.91 265.71, 355.44 261.40 C 358.98 257.09, 360.76 254.66, 363.66 251.25 C 366.55 247.85, 368.45 246.74, 369.94 244.38 C 371.42 242.03, 371.38 240.64, 371.08 239.49 C 370.78 238.35, 369.60 237.71, 368.42 238.66 C 367.24 239.62, 366.34 240.81, 365.18 244.27 C 364.02 247.73, 363.77 250.51, 362.62 255.97 C 361.47 261.43, 360.75 264.95, 359.44 271.57 C 358.13 278.19, 357.31 281.96, 356.06 289.08 C 354.81 296.20, 354.06 300.11, 353.18 307.17 C 352.30 314.22, 352.03 317.81, 351.68 324.35 C 351.33 330.89, 351.31 333.94, 351.42 339.88 C 351.53 345.82, 351.64 348.89, 352.22 354.05 C 352.81 359.22, 353.23 361.73, 354.34 365.69 C 355.46 369.66, 355.89 371.58, 357.81 373.90 C 359.73 376.21, 361.41 377.01, 363.93 377.28 C 366.45 377.54, 368.18 377.25, 370.41 375.23 C 372.63 373.22, 373.36 371.31, 375.04 367.21 C 376.73 363.11, 377.18 360.32, 378.83 354.73 C 380.47 349.14, 381.56 345.81, 383.27 339.26 C 384.98 332.71, 385.64 329.08, 387.37 322.00 C 389.10 314.91, 390.12 311.24, 391.92 303.82 C 393.71 296.41, 394.55 292.32, 396.34 284.93 C 398.14 277.54, 399.18 273.61, 400.90 266.87 C 402.62 260.14, 403.37 256.89, 404.95 251.24 C 406.53 245.60, 407.30 242.75, 408.80 238.63 C 410.29 234.52, 411.32 233.12, 412.44 230.66 C 413.55 228.21, 413.84 227.49, 414.38 226.36 C 414.92 225.22, 414.92 224.89, 415.13 224.99 C 415.34 225.09, 414.67 226.20, 415.45 226.83 C 416.23 227.47, 417.68 228.82, 419.04 228.18 C 420.40 227.55, 422.28 225.30, 422.25 223.67 C 422.21 222.05, 420.51 220.64, 418.86 220.05 C 417.21 219.47, 415.72 220.13, 413.99 220.75 C 412.26 221.37, 411.70 221.67, 410.22 223.14 C 408.74 224.61, 407.81 225.29, 406.61 228.11 C 405.41 230.93, 405.32 232.82, 404.23 237.26 C 403.15 241.69, 402.52 244.52, 401.18 250.28 C 399.84 256.04, 399.15 259.27, 397.54 266.05 C 395.93 272.82, 394.91 276.76, 393.14 284.16 C 391.38 291.56, 390.55 295.65, 388.72 303.04 C 386.88 310.43, 385.82 314.10, 383.95 321.12 C 382.09 328.15, 381.36 331.75, 379.37 338.14 C 377.39 344.54, 376.08 347.82, 374.03 353.10 C 371.99 358.39, 370.90 361.01, 369.14 364.56 C 367.39 368.10, 366.18 369.15, 365.25 370.83 C 364.31 372.51, 364.93 373.08, 364.48 372.97 C 364.02 372.86, 363.94 372.07, 362.97 370.27 C 362.00 368.48, 360.89 367.36, 359.63 363.99 C 358.38 360.61, 357.56 358.25, 356.70 353.41 C 355.84 348.56, 355.62 345.53, 355.34 339.75 C 355.06 333.98, 355.02 330.95, 355.29 324.52 C 355.56 318.09, 355.81 314.56, 356.69 307.61 C 357.57 300.65, 358.31 296.77, 359.69 289.75 C 361.07 282.73, 361.90 278.97, 363.58 272.51 C 365.26 266.05, 366.31 262.67, 368.07 257.45 C 369.82 252.23, 371.38 250.00, 372.33 246.41 C 373.29 242.83, 373.48 241.33, 372.84 239.52 C 372.19 237.70, 370.80 237.21, 369.11 237.35 C 367.41 237.48, 366.29 238.04, 364.37 240.19 C 362.46 242.35, 362.00 244.44, 359.54 248.15 C 357.07 251.85, 355.39 254.29, 352.05 258.73 C 348.71 263.17, 346.60 265.50, 342.84 270.34 C 339.07 275.19, 337.13 277.89, 333.24 282.95 C 329.36 288.02, 327.29 290.77, 323.40 295.67 C 319.52 300.57, 317.48 303.20, 313.82 307.44 C 310.15 311.68, 308.28 313.61, 305.07 316.86 C 301.87 320.10, 299.96 321.34, 297.79 323.67 C 295.61 326.00, 295.12 326.75, 294.20 328.51 C 293.28 330.28, 292.84 331.25, 293.18 332.50 C 293.51 333.74, 294.60 334.61, 295.86 334.74" style="stroke: #4F8CFF; fill: #4F8CFF;"/><path d="M 422.79,318.86 C 421.67 318.29, 420.81 318.51, 419.20 319.06 C 417.58 319.62, 416.50 319.94, 414.69 321.64 C 412.88 323.33, 411.64 324.82, 410.15 327.54 C 408.66 330.25, 408.29 332.02, 407.24 335.21 C 406.19 338.40, 405.50 340.15, 404.90 343.49 C 404.30 346.83, 403.75 348.89, 404.23 351.91 C 404.71 354.92, 405.65 356.39, 407.32 358.56 C 408.99 360.74, 409.98 361.73, 412.57 362.77 C 415.16 363.81, 417.19 364.32, 420.27 363.76 C 423.36 363.19, 425.29 362.23, 428.00 359.94 C 430.71 357.65, 431.77 355.66, 433.83 352.29 C 435.89 348.92, 436.74 347.09, 438.30 343.08 C 439.85 339.08, 440.62 336.54, 441.61 332.29 C 442.59 328.03, 443.15 325.40, 443.23 321.81 C 443.32 318.22, 443.07 316.72, 442.05 314.34 C 441.03 311.96, 440.11 310.79, 438.11 309.91 C 436.11 309.02, 434.19 308.92, 432.05 309.91 C 429.90 310.90, 428.63 312.28, 427.37 314.85 C 426.11 317.42, 425.66 319.40, 425.74 322.77 C 425.82 326.15, 426.44 328.28, 427.78 331.73 C 429.12 335.17, 430.26 336.96, 432.45 340.00 C 434.64 343.04, 435.88 344.65, 438.74 346.93 C 441.60 349.22, 443.27 350.28, 446.75 351.41 C 450.23 352.54, 452.29 352.73, 456.14 352.58 C 459.99 352.43, 462.09 352.21, 466.01 350.64 C 469.92 349.07, 471.97 347.78, 475.72 344.74 C 479.48 341.70, 481.23 339.78, 484.79 335.44 C 488.35 331.09, 490.15 328.53, 493.52 323.01 C 496.88 317.49, 498.57 314.18, 501.61 307.82 C 504.66 301.46, 506.08 297.84, 508.75 291.21 C 511.43 284.59, 512.83 281.18, 514.99 274.69 C 517.15 268.21, 518.06 264.75, 519.57 258.76 C 521.07 252.78, 521.74 249.96, 522.51 244.78 C 523.27 239.61, 523.51 237.18, 523.38 232.88 C 523.25 228.58, 522.98 226.58, 521.87 223.27 C 520.76 219.96, 519.71 218.39, 517.82 216.32 C 515.93 214.26, 514.86 213.53, 512.44 212.93 C 510.02 212.33, 508.24 212.25, 505.72 213.31 C 503.20 214.36, 501.80 215.41, 499.85 218.21 C 497.91 221.00, 497.47 223.17, 496.00 227.28 C 494.53 231.39, 493.76 233.72, 492.49 238.77 C 491.23 243.83, 490.60 246.71, 489.66 252.54 C 488.71 258.37, 488.42 261.61, 487.76 267.94 C 487.10 274.26, 486.75 277.58, 486.36 284.15 C 485.96 290.73, 485.77 294.22, 485.79 300.82 C 485.81 307.43, 486.09 311.00, 486.48 317.19 C 486.86 323.38, 487.01 326.42, 487.73 331.76 C 488.44 337.11, 488.81 339.65, 490.05 343.91 C 491.28 348.17, 491.79 350.34, 493.90 353.06 C 496.00 355.79, 497.58 356.62, 500.58 357.54 C 503.58 358.46, 505.71 358.78, 508.90 357.65 C 512.09 356.51, 513.49 354.94, 516.52 351.86 C 519.56 348.79, 521.14 346.79, 524.07 342.27 C 527.00 337.75, 528.57 335.04, 531.18 329.24 C 533.80 323.44, 534.90 319.87, 537.13 313.27 C 539.35 306.68, 540.45 302.88, 542.30 296.27 C 544.15 289.67, 544.94 286.30, 546.39 280.25 C 547.83 274.19, 548.52 271.18, 549.52 266.00 C 550.52 260.82, 551.31 258.00, 551.39 254.35 C 551.47 250.69, 551.14 249.06, 549.94 247.71 C 548.74 246.36, 547.10 246.19, 545.39 247.58 C 543.68 248.96, 542.71 250.53, 541.41 254.63 C 540.11 258.74, 539.87 262.09, 538.89 268.09 C 537.91 274.09, 537.31 277.97, 536.49 284.62 C 535.68 291.27, 535.27 294.85, 534.82 301.34 C 534.36 307.83, 534.28 311.33, 534.22 317.08 C 534.16 322.83, 533.91 325.61, 534.53 330.08 C 535.15 334.56, 535.41 336.76, 537.33 339.45 C 539.25 342.14, 541.16 343.02, 544.15 343.53 C 547.13 344.04, 549.21 343.72, 552.25 342.00 C 555.29 340.29, 556.59 338.16, 559.37 334.96 C 562.15 331.76, 563.55 329.73, 566.16 325.99 C 568.76 322.25, 570.12 320.00, 572.39 316.26 C 574.66 312.51, 575.92 310.38, 577.49 307.26 C 579.07 304.13, 579.93 302.69, 580.28 300.63 C 580.63 298.57, 580.16 297.71, 579.25 296.95 C 578.34 296.20, 577.10 296.06, 575.74 296.84 C 574.38 297.63, 573.25 298.71, 572.46 300.88 C 571.66 303.05, 571.64 304.66, 571.75 307.69 C 571.86 310.72, 572.43 312.51, 573.01 316.04 C 573.58 319.57, 573.89 321.71, 574.65 325.34 C 575.41 328.97, 575.67 330.79, 576.79 334.20 C 577.90 337.62, 578.40 339.49, 580.21 342.40 C 582.03 345.31, 583.26 346.89, 585.85 348.75 C 588.44 350.61, 590.04 351.18, 593.16 351.70 C 596.28 352.22, 598.10 352.13, 601.45 351.34 C 604.81 350.54, 606.66 349.66, 609.92 347.74 C 613.17 345.82, 614.70 344.44, 617.75 341.72 C 620.80 339.00, 622.37 337.32, 625.17 334.14 C 627.96 330.95, 629.37 328.97, 631.72 325.78 C 634.06 322.60, 635.40 320.91, 636.89 318.21 C 638.38 315.50, 639.05 314.02, 639.17 312.25 C 639.28 310.49, 638.39 309.47, 637.46 309.37 C 636.54 309.28, 635.16 309.90, 634.55 311.76 C 633.94 313.63, 634.17 315.20, 634.41 318.70 C 634.65 322.20, 635.17 324.51, 635.73 329.25 C 636.29 333.99, 636.72 336.84, 637.19 342.40 C 637.66 347.97, 637.77 350.99, 638.09 357.08 C 638.40 363.17, 638.43 366.56, 638.75 372.85 C 639.07 379.15, 639.41 382.58, 639.70 388.56 C 639.98 394.53, 640.14 397.55, 640.18 402.73 C 640.22 407.90, 640.35 410.55, 639.92 414.43 C 639.49 418.32, 638.72 419.84, 638.05 422.15 C 637.38 424.47, 637.23 425.31, 636.57 426.01 C 635.90 426.70, 635.80 426.36, 634.74 425.62 C 633.69 424.89, 632.98 423.95, 631.28 422.31 C 629.59 420.67, 628.19 419.89, 626.27 417.40 C 624.35 414.92, 623.21 413.15, 621.70 409.88 C 620.19 406.61, 619.53 404.60, 618.72 401.04 C 617.91 397.48, 617.47 395.72, 617.65 392.08 C 617.83 388.44, 618.37 386.69, 619.61 382.83 C 620.85 378.98, 621.88 376.93, 623.84 372.82 C 625.80 368.70, 626.72 366.56, 629.41 362.25 C 632.11 357.93, 633.93 355.62, 637.31 351.24 C 640.69 346.87, 642.55 344.52, 646.31 340.36 C 650.07 336.20, 652.15 334.29, 656.11 330.43 C 660.07 326.57, 662.32 324.43, 666.09 321.05 C 669.86 317.66, 671.64 316.13, 674.95 313.51 C 678.27 310.88, 680.15 309.82, 682.66 307.94 C 685.16 306.07, 686.35 305.21, 687.48 304.12 C 688.61 303.04, 688.52 302.46, 688.32 302.50 C 688.12 302.54, 687.23 302.96, 686.48 304.32 C 685.73 305.69, 685.09 307.08, 684.56 309.33 C 684.04 311.58, 684.07 313.01, 683.85 315.57 C 683.63 318.14, 683.35 319.57, 683.45 322.15 C 683.55 324.72, 683.53 326.21, 684.34 328.44 C 685.16 330.67, 685.84 331.82, 687.52 333.30 C 689.21 334.78, 690.44 335.41, 692.75 335.85 C 695.07 336.29, 696.57 336.16, 699.09 335.52 C 701.62 334.88, 702.90 334.08, 705.39 332.65 C 707.88 331.22, 709.02 330.08, 711.55 328.36 C 714.07 326.64, 715.47 325.66, 718.01 324.06 C 720.55 322.45, 722.02 321.67, 724.27 320.34 C 726.51 319.00, 727.56 318.25, 729.23 317.39 C 730.90 316.52, 731.49 316.17, 732.62 316.02 C 733.75 315.86, 734.11 316.18, 734.88 316.60 C 735.65 317.01, 736.03 317.18, 736.47 318.09 C 736.91 318.99, 736.86 319.41, 737.07 321.12 C 737.28 322.84, 737.18 324.31, 737.52 326.65 C 737.85 328.99, 738.11 330.57, 738.75 332.82 C 739.39 335.07, 739.66 336.13, 740.73 337.89 C 741.80 339.66, 742.31 340.72, 744.08 341.62 C 745.86 342.52, 747.42 342.81, 749.60 342.40 C 751.77 341.98, 753.00 341.15, 754.95 339.55 C 756.91 337.94, 757.34 336.60, 759.36 334.38 C 761.37 332.16, 762.58 330.77, 765.03 328.46 C 767.48 326.14, 769.04 324.80, 771.60 322.82 C 774.17 320.84, 775.61 319.85, 777.86 318.54 C 780.11 317.23, 781.28 316.84, 782.85 316.27 C 784.42 315.71, 785.02 315.47, 785.71 315.72 C 786.40 315.98, 786.24 316.23, 786.30 317.55 C 786.35 318.86, 785.98 319.93, 785.99 322.30 C 785.99 324.66, 786.07 326.37, 786.31 329.39 C 786.54 332.41, 786.61 334.27, 787.16 337.41 C 787.71 340.54, 787.86 342.27, 789.06 345.06 C 790.25 347.84, 791.04 349.32, 793.15 351.33 C 795.25 353.35, 796.74 354.31, 799.58 355.13 C 802.42 355.96, 804.50 355.90, 807.36 355.46 C 810.22 355.02, 811.76 354.26, 813.86 352.95 C 815.95 351.64, 817.31 350.41, 817.85 348.91 C 818.39 347.41, 817.94 346.25, 816.58 345.45 C 815.22 344.65, 813.25 344.71, 811.05 344.91 C 808.84 345.11, 807.53 345.88, 805.53 346.43 C 803.52 346.98, 802.47 347.66, 801.01 347.66 C 799.56 347.66, 799.09 347.48, 798.24 346.43 C 797.40 345.38, 797.25 344.44, 796.79 342.40 C 796.33 340.36, 796.16 338.96, 795.94 336.24 C 795.71 333.53, 795.78 331.82, 795.65 328.82 C 795.52 325.83, 795.85 324.06, 795.28 321.26 C 794.71 318.46, 794.19 317.00, 792.78 314.83 C 791.38 312.66, 790.51 311.58, 788.26 310.42 C 786.02 309.26, 784.44 308.82, 781.58 309.04 C 778.72 309.25, 776.89 309.95, 773.97 311.50 C 771.04 313.05, 769.77 314.61, 766.94 316.78 C 764.12 318.96, 762.68 320.19, 759.85 322.37 C 757.02 324.56, 755.15 325.63, 752.80 327.70 C 750.45 329.77, 749.45 330.99, 748.09 332.72 C 746.72 334.46, 746.37 335.25, 745.98 336.37 C 745.60 337.49, 745.77 338.28, 746.17 338.31 C 746.56 338.34, 747.48 337.94, 747.95 336.54 C 748.42 335.14, 748.60 333.65, 748.53 331.30 C 748.46 328.95, 748.17 327.36, 747.59 324.78 C 747.01 322.20, 746.71 320.66, 745.65 318.39 C 744.58 316.12, 743.86 315.05, 742.28 313.43 C 740.70 311.82, 739.74 311.17, 737.76 310.32 C 735.78 309.47, 734.64 309.23, 732.38 309.19 C 730.13 309.14, 728.95 309.41, 726.48 310.11 C 724.01 310.82, 722.63 311.35, 720.03 312.69 C 717.44 314.04, 716.15 315.22, 713.52 316.85 C 710.88 318.47, 709.44 319.35, 706.85 320.82 C 704.25 322.28, 702.76 322.94, 700.56 324.18 C 698.37 325.42, 697.41 326.12, 695.88 327.01 C 694.34 327.91, 693.72 328.29, 692.88 328.68 C 692.04 329.06, 691.90 329.29, 691.67 328.95 C 691.44 328.61, 691.61 328.21, 691.72 326.96 C 691.84 325.71, 691.86 324.69, 692.25 322.72 C 692.65 320.74, 693.15 319.52, 693.69 317.09 C 694.24 314.66, 694.93 313.19, 694.98 310.56 C 695.03 307.94, 694.89 306.16, 693.95 303.94 C 693.02 301.72, 692.14 300.51, 690.31 299.48 C 688.48 298.45, 687.15 298.13, 684.81 298.78 C 682.47 299.43, 681.27 300.58, 678.60 302.72 C 675.93 304.86, 674.61 306.50, 671.46 309.48 C 668.32 312.46, 666.58 314.05, 662.89 317.61 C 659.20 321.18, 656.97 323.33, 653.01 327.30 C 649.05 331.26, 646.93 333.19, 643.07 337.42 C 639.22 341.65, 637.28 343.99, 633.74 348.44 C 630.19 352.88, 628.26 355.22, 625.35 359.64 C 622.44 364.05, 621.38 366.22, 619.18 370.50 C 616.97 374.79, 615.80 376.82, 614.32 381.06 C 612.85 385.29, 612.14 387.45, 611.79 391.69 C 611.44 395.93, 611.86 398.10, 612.58 402.26 C 613.31 406.41, 613.95 408.57, 615.40 412.48 C 616.85 416.39, 617.78 418.50, 619.83 421.81 C 621.88 425.12, 622.99 427.02, 625.66 429.03 C 628.33 431.04, 630.37 431.62, 633.19 431.85 C 636.01 432.08, 637.53 431.71, 639.77 430.18 C 642.01 428.65, 643.28 427.29, 644.37 424.20 C 645.45 421.12, 645.14 419.07, 645.20 414.75 C 645.26 410.42, 644.95 407.87, 644.67 402.59 C 644.39 397.31, 644.19 394.32, 643.81 388.33 C 643.43 382.34, 643.08 378.94, 642.79 372.66 C 642.50 366.37, 642.49 363.02, 642.34 356.92 C 642.19 350.82, 642.13 347.75, 642.04 342.16 C 641.95 336.57, 641.76 333.73, 641.89 328.98 C 642.02 324.22, 642.73 321.95, 642.70 318.38 C 642.67 314.82, 642.67 313.21, 641.73 311.16 C 640.79 309.11, 639.56 308.51, 638.00 308.14 C 636.44 307.76, 635.52 308.06, 633.94 309.28 C 632.35 310.51, 631.62 311.72, 630.08 314.27 C 628.53 316.82, 628.14 318.90, 626.20 322.03 C 624.26 325.16, 622.92 327.00, 620.36 329.92 C 617.80 332.84, 616.20 334.36, 613.41 336.63 C 610.61 338.90, 609.13 339.88, 606.36 341.27 C 603.59 342.66, 602.00 342.95, 599.56 343.57 C 597.11 344.20, 595.99 344.53, 594.14 344.38 C 592.29 344.24, 591.77 344.04, 590.30 342.84 C 588.83 341.64, 588.08 340.56, 586.77 338.38 C 585.47 336.19, 584.71 334.78, 583.75 331.91 C 582.80 329.03, 582.49 327.30, 581.99 324.00 C 581.48 320.70, 581.17 318.61, 581.23 315.41 C 581.29 312.20, 582.02 310.67, 582.28 307.98 C 582.55 305.29, 582.91 304.01, 582.56 301.96 C 582.22 299.92, 581.56 298.90, 580.56 297.74 C 579.57 296.59, 578.84 296.15, 577.57 296.19 C 576.30 296.22, 575.51 296.32, 574.22 297.92 C 572.94 299.52, 572.58 301.12, 571.15 304.17 C 569.72 307.22, 569.09 309.53, 567.07 313.16 C 565.05 316.79, 563.63 318.89, 561.06 322.32 C 558.50 325.74, 556.81 327.58, 554.22 330.29 C 551.64 333.00, 550.04 334.25, 548.13 335.85 C 546.23 337.44, 545.88 338.19, 544.70 338.26 C 543.53 338.33, 543.30 338.00, 542.26 336.20 C 541.22 334.40, 540.27 333.09, 539.51 329.26 C 538.76 325.43, 538.62 322.58, 538.48 317.05 C 538.33 311.52, 538.34 307.98, 538.79 301.62 C 539.24 295.25, 539.65 291.71, 540.72 285.22 C 541.80 278.73, 542.75 274.91, 544.16 269.16 C 545.57 263.42, 546.72 260.41, 547.77 256.51 C 548.83 252.61, 549.59 251.32, 549.44 249.66 C 549.30 248.01, 547.87 247.37, 547.07 248.22 C 546.26 249.08, 545.83 250.52, 545.43 253.94 C 545.03 257.36, 545.64 260.23, 545.07 265.32 C 544.51 270.41, 543.88 273.41, 542.60 279.40 C 541.33 285.38, 540.53 288.74, 538.70 295.26 C 536.88 301.79, 535.75 305.58, 533.47 312.00 C 531.18 318.43, 530.00 321.93, 527.27 327.38 C 524.54 332.84, 522.84 335.32, 519.81 339.28 C 516.79 343.25, 514.86 344.87, 512.14 347.20 C 509.43 349.54, 508.23 350.02, 506.24 350.94 C 504.25 351.86, 503.67 352.13, 502.19 351.80 C 500.72 351.46, 500.30 351.15, 498.85 349.25 C 497.40 347.35, 496.31 345.93, 494.95 342.30 C 493.59 338.67, 492.96 336.17, 492.05 331.09 C 491.14 326.01, 490.91 322.96, 490.42 316.90 C 489.92 310.85, 489.62 307.30, 489.57 300.80 C 489.52 294.30, 489.72 290.88, 490.16 284.40 C 490.61 277.92, 491.00 274.61, 491.78 268.40 C 492.57 262.19, 492.93 258.98, 494.09 253.36 C 495.26 247.73, 496.01 244.97, 497.61 240.28 C 499.21 235.60, 500.26 233.42, 502.10 229.94 C 503.94 226.46, 505.41 225.07, 506.81 222.88 C 508.21 220.70, 508.28 219.94, 509.09 219.03 C 509.90 218.13, 510.15 218.06, 510.86 218.37 C 511.57 218.67, 511.66 219.11, 512.65 220.56 C 513.64 222.00, 514.68 223.04, 515.80 225.58 C 516.92 228.12, 517.76 229.53, 518.23 233.26 C 518.71 237.00, 518.66 239.33, 518.18 244.25 C 517.69 249.17, 517.14 252.01, 515.82 257.87 C 514.50 263.74, 513.65 267.17, 511.58 273.57 C 509.50 279.97, 508.12 283.35, 505.46 289.87 C 502.79 296.40, 501.34 299.99, 498.26 306.18 C 495.18 312.38, 493.45 315.59, 490.05 320.83 C 486.64 326.07, 484.76 328.47, 481.24 332.40 C 477.72 336.32, 475.91 337.95, 472.43 340.44 C 468.96 342.92, 467.15 343.74, 463.87 344.81 C 460.59 345.89, 458.99 345.82, 456.02 345.79 C 453.05 345.76, 451.55 345.56, 449.03 344.66 C 446.52 343.75, 445.48 343.07, 443.43 341.28 C 441.38 339.48, 440.32 338.12, 438.77 335.68 C 437.23 333.25, 436.36 331.70, 435.72 329.11 C 435.07 326.52, 435.46 325.06, 435.53 322.75 C 435.60 320.44, 436.01 319.21, 436.06 317.55 C 436.12 315.89, 435.85 315.21, 435.81 314.45 C 435.77 313.69, 435.85 313.44, 435.87 313.74 C 435.89 314.04, 435.91 314.38, 435.92 315.94 C 435.93 317.50, 436.06 318.55, 435.91 321.54 C 435.76 324.54, 435.90 327.09, 435.16 330.91 C 434.42 334.72, 433.68 337.15, 432.21 340.62 C 430.74 344.08, 429.74 345.69, 427.81 348.24 C 425.88 350.78, 424.47 351.85, 422.57 353.34 C 420.68 354.84, 419.90 355.17, 418.34 355.72 C 416.78 356.27, 415.89 356.27, 414.76 356.09 C 413.64 355.91, 413.23 355.77, 412.74 354.82 C 412.24 353.86, 412.15 353.21, 412.27 351.31 C 412.39 349.40, 412.67 347.87, 413.33 345.29 C 413.99 342.71, 414.43 340.94, 415.58 338.42 C 416.73 335.90, 417.79 334.81, 419.08 332.68 C 420.38 330.55, 421.14 329.37, 422.07 327.77 C 422.99 326.18, 423.17 325.88, 423.71 324.71 C 424.25 323.54, 424.95 323.08, 424.76 321.91 C 424.58 320.74, 423.90 319.43, 422.79 318.86" style="stroke: #4F8CFF; fill: #4F8CFF;"/></g></svg>